<svg xmlns="http://www.w3.org/2000/svg" width="256" height="256"><path fill-opacity=".016" d="M0 128.004v128.004l128.25-.254 128.25-.254.254-127.75L257.008 0H0v128.004m.485.496c0 70.4.119 99.053.265 63.672.146-35.38.146-92.98 0-128C.604 29.153.485 58.1.485 128.5" fill="#1976D2" fill-rule="evenodd"/><path fill-opacity=".334" d="M76 5.062c0 7.081 5.606 16.6 13.414 22.777 2.346 1.856 1.509 3.492-2.17 4.245-1.708.349-3.844 1.373-4.746 2.276-.903.902-2.095 1.64-2.651 1.64C78.393 36 69 46.117 69 47.684c0 .724-.367 1.316-.815 1.316-.448 0-1.566 1.575-2.484 3.5-2.027 4.25-4.794 4.572-6.464.75-.66-1.513-2.102-4.1-3.204-5.75-1.102-1.65-2.421-3.94-2.932-5.089C51.938 39.795 46.323 35 44.423 35 43.64 35 43 34.656 43 34.236c0-.42-2.362-1.869-5.25-3.219-2.888-1.35-7.848-3.959-11.023-5.798-7.527-4.357-12.079-4.233-12.526.343-.273 2.785.179 3.312 5 5.837 2.914 1.527 7.099 3.84 9.299 5.141 2.2 1.3 4.563 2.611 5.25 2.912l2.5 1.099c4.657 2.052 8.037 4.352 9.06 6.167 4.411 7.824 8.191 13.831 8.881 14.115.445.184.812.859.815 1.5.004.642.645 2.392 1.427 3.89 1.25 2.397 1.22 3.129-.257 6.132-.922 1.876-4.204 5.464-7.294 7.975-3.089 2.51-7.21 6.951-9.156 9.867-4.592 6.88-8.339 10.278-12.962 11.755-2.055.657-3.994 1.611-4.309 2.121-.315.51-1.498.927-2.629.927-2.602 0-8.535 6.397-9.342 10.074-.337 1.533-1.259 3.324-2.048 3.979C7.646 119.709 7 121.035 7 122c0 .965-.646 2.291-1.436 2.947-.789.655-1.725 2.51-2.079 4.122C3.131 130.681 2.202 132 1.421 132 .383 132 0 133.347 0 137c0 4.976.016 5 3.25 4.994 3.503-.007 4.473-1.177 9.537-11.494 1.35-2.75 2.828-5.675 3.285-6.5.456-.825 1.796-3.42 2.976-5.767 2.247-4.465 5.16-6.751 7.474-5.863 1.082.415 1.372 4.29 1.402 18.712.037 18.344.564 24.484 2.189 25.488.488.301.902 2.209.921 4.239.019 2.03.903 5.491 1.966 7.691s1.947 4.957 1.966 6.128c.019 1.17.709 2.687 1.534 3.372.825.685 1.5 1.841 1.5 2.57 0 1.453 4.539 10.363 6.052 11.88.522.522.948 6.604.948 13.514v12.565l-13.066 12.985c-7.186 7.142-13.524 13.814-14.083 14.827-1.528 2.761.783 7.698 3.52 7.523 1.333-.085 7.645-5.825 16.879-15.347L53 223.306v-8.153c0-4.484.221-8.153.49-8.153.27 0 4.446 3.97 9.28 8.823 8.06 8.091 20.893 18.051 28.609 22.204 12.269 6.603 19.072 9.973 20.137 9.973.681 0 1.799.675 2.484 1.5s2.283 1.5 3.551 1.5c1.268 0 2.981.675 3.806 1.5.979.979 3.46 1.5 7.143 1.5s6.164-.521 7.143-1.5c.825-.825 2.538-1.5 3.806-1.5 1.268 0 2.866-.675 3.551-1.5s1.803-1.5 2.484-1.5c1.186 0 11.342-5.093 20.192-10.125 9.474-5.387 19.105-12.808 28.004-21.578 5.189-5.113 9.633-9.297 9.877-9.297.244 0 .443 3.669.443 8.153v8.153l14.75 15.211c9.234 9.522 15.546 15.262 16.879 15.347 2.737.175 5.048-4.762 3.52-7.523-.559-1.013-6.897-7.685-14.083-14.827L212 218.529v-12.565c0-6.91.426-12.992.948-13.514 1.513-1.517 6.052-10.427 6.052-11.88 0-.729.675-1.885 1.5-2.57.825-.685 1.503-2.202 1.506-3.372.004-1.171.7-3.458 1.547-5.083.848-1.626 1.808-5.001 2.133-7.5.325-2.5 1.091-5.445 1.703-6.545.661-1.191 1.313-10.29 1.611-22.488.45-18.445.674-20.521 2.241-20.822 2.03-.388 7.759 5.452 7.759 7.91 0 .91.675 2.215 1.5 2.9s1.5 2.058 1.5 3.051c0 .993.616 2.422 1.368 3.174.753.753 1.692 2.388 2.087 3.633.395 1.246 1.692 3.809 2.882 5.695 1.77 2.808 2.708 3.386 5.163 3.189 2.877-.232 3.012-.456 3.302-5.481.245-4.254.028-5.133-1.155-4.679-1.009.387-1.66-.364-2.116-2.442-.363-1.651-1.306-3.538-2.095-4.193-.79-.656-1.436-1.982-1.436-2.947 0-.965-.631-2.279-1.402-2.919-.771-.639-1.695-2.331-2.053-3.759-.99-3.942-5.483-9.27-8.424-9.989-1.441-.352-4.189-1.471-6.106-2.486-1.917-1.016-3.997-1.847-4.623-1.847-1.363 0-9.392-8.523-9.392-9.97C218 89.762 205.133 77 203.855 77c-.515 0-1.742-1.896-2.726-4.213-1.535-3.614-1.601-4.573-.465-6.75.728-1.395 1.326-3.099 1.33-3.787.003-.687.352-1.25.775-1.25.659 0 2.642-3.176 8.921-14.287 1.051-1.86 4.766-4.347 9.31-6.234.825-.343 2.175-1.05 3-1.571.825-.522 2.932-1.607 4.682-2.413 1.75-.806 3.464-1.922 3.809-2.48.345-.558 1.244-1.015 1.999-1.015.754 0 2.974-1.012 4.932-2.25 2.936-1.855 3.519-2.777 3.32-5.25-.209-2.586-.686-3.043-3.46-3.311-2.068-.2-4.748.579-7.5 2.178-8.257 4.799-17.31 9.75-20.302 11.102-1.661.751-3.911 2.344-5 3.54-2.222 2.44-6.887 10.064-8.715 14.241-.662 1.513-1.748 2.75-2.413 2.75-1.446 0-4.352-2.745-4.352-4.112C191 49.393 179.573 36 177.445 36c-.627 0-2.177-.9-3.445-2-1.268-1.1-3.362-2-4.653-2-3.194 0-3.005-2.523.355-4.724 3.353-2.197 7.298-6.088 7.298-7.199 0-.458.663-1.382 1.474-2.055.81-.673 1.761-2.758 2.113-4.634.352-1.875 1.039-3.657 1.526-3.958.488-.301.887-2.347.887-4.547V.885l-4.248.308c-4.146.3-4.273.415-5.269 4.807-1.314 5.792-4.466 10.703-8.407 13.1-4.336 2.637-5.734 2.416-10.455-1.65-5.755-4.958-5.983-5.114-8.698-5.962-1.333-.417-3.311-1.372-4.396-2.123C140.159 8.418 136.255 8 128.774 8c-8.871 0-11.443.354-14.513 2-2.052 1.1-4.196 2-4.763 2-.568 0-3.347 2.025-6.177 4.5-2.829 2.475-5.84 4.5-6.69 4.5-2.23 0-9.625-7.344-9.663-9.595-.017-1.048-.692-2.779-1.5-3.846C84.661 6.491 84 4.579 84 3.309 84 1.282 83.512 1 80 1h-4v4.062M72 122.5c-.685.825-2.057 1.5-3.05 1.5-.993 0-2.733 1.237-3.867 2.75-1.133 1.512-2.516 3.294-3.072 3.958-.556.664-1.011 4.078-1.011 7.587 0 6.064.196 6.585 3.96 10.542 2.178 2.29 4.851 4.163 5.941 4.163 1.089 0 2.259.45 2.599 1 .34.55 1.915 1 3.5 1s3.16-.45 3.5-1c.34-.55 1.527-1 2.637-1 1.111 0 3.785-1.837 5.941-4.082 3.771-3.924 3.922-4.341 3.922-10.819 0-6.013-.311-7.087-2.882-9.966-5.478-6.137-15.193-9.157-18.118-5.633m103 0c-.685.825-2.051 1.5-3.036 1.5-.985 0-3.18 1.889-4.877 4.197-2.647 3.599-3.087 5.06-3.087 10.25 0 5.637.268 6.347 3.884 10.303 2.16 2.363 4.798 4.25 5.941 4.25 1.132 0 2.314.415 2.627.923.314.508 1.92 1.22 3.57 1.582 1.649.362 3.689 1.349 4.532 2.192 1.378 1.378 1.732 1.354 3.49-.237 1.076-.973 1.956-2.797 1.956-4.053 0-1.256 1.328-3.737 2.951-5.514 2.058-2.254 3.041-4.465 3.25-7.312.23-3.137.829-4.312 2.592-5.081 4.576-1.995-.066-9.744-5.244-8.754-1.402.268-2.549.025-2.549-.54 0-1.551-8.21-5.206-11.693-5.206-1.684 0-3.622.675-4.307 1.5M.3 137c0 3.025.187 4.262.416 2.75.229-1.512.229-3.988 0-5.5S.3 133.975.3 137m94.039 47.139c-5.907 5.282-6.339 5.914-6.339 9.277 0 3.841 2.285 6.631 7.048 8.604 4.246 1.759 10.539-1.204 11.368-5.352.975-4.874-.353-9.694-2.944-10.679-1.253-.476-2.573-1.343-2.934-1.927-.829-1.341-4.667-1.294-6.199.077m59.851 1.661c-3.1 2.572-3.291 3.089-3 8.147.275 4.796.646 5.598 3.31 7.154 3.788 2.213 6.216 2.212 10-.004 6.025-3.528 5.966-11.97-.112-15.847-4.534-2.893-6.154-2.805-10.198.55" fill="#1976D2" fill-rule="evenodd"/><path fill-opacity=".42" d="M77 4.373c0 6.881 6.448 17.924 12.579 21.541 4.296 2.535 4.624 5.784.671 6.65-7.854 1.721-16.513 9.07-22.311 18.936-5.014 8.53-6.408 8.352-11.939-1.527-5.621-10.04-7.351-11.675-18.5-17.477-4.95-2.576-10.983-5.767-13.407-7.09C18.22 22.2 15 22.204 15 25.417c0 1.96 1.181 3.015 6.25 5.585 3.438 1.742 9.4 4.939 13.25 7.104 3.85 2.165 7.733 4.19 8.628 4.5.896.31 2.138 1.538 2.761 2.729.623 1.191 2.028 3.515 3.122 5.165 1.095 1.65 2.558 4.125 3.252 5.5.693 1.375 2.493 4.404 3.999 6.73C57.768 65.057 59 67.662 59 68.52c0 1.941-3.778 9.47-4.77 9.507-1.462.053-10.976 9.653-16.574 16.723-3.158 3.987-6.217 7.25-6.797 7.25-.581 0-2.475.647-4.208 1.438-1.733.79-4.811 2.106-6.84 2.923-3.654 1.472-8.811 7.945-8.811 11.06 0 .804-.411 1.715-.913 2.026-.948.585-4.223 7.016-6.01 11.803-.565 1.512-1.714 2.75-2.552 2.75C.497 134 0 134.978 0 137c0 2.724.302 3 3.284 3 3.213 0 3.434-.295 10.25-13.703l6.966-13.703 4.743-1.47c5.441-1.687 6.438-1.249 4.65 2.04-1.965 3.616-1.569 30.657.584 39.942 3.774 16.267 11.391 36.458 14.471 38.362.653.403 1.052 5.821 1.052 14.264v13.613l-14.134 14.256C17.631 247.958 15.772 251 21.232 251c1.619 0 6.48-4.194 16.531-14.263L52 222.475v-8.178c0-4.499.435-8.448.966-8.776.532-.329 4.245 2.86 8.25 7.085 4.006 4.226 10.209 9.86 13.784 12.521 3.575 2.662 6.992 5.249 7.594 5.75.602.5 2.402 1.647 4 2.547 1.598.9 4.256 2.486 5.906 3.524 3.279 2.063 18.21 9.594 23 11.601 1.65.692 4.237 1.741 5.75 2.333 1.513.591 2.75 1.535 2.75 2.097 0 .561 2.025 1.021 4.5 1.021s4.5-.46 4.5-1.021c0-.562 1.238-1.506 2.75-2.097 7.447-2.913 22.189-10.03 29.479-14.232 9.282-5.351 19.011-12.905 28.159-21.864 5.456-5.343 10.3-9.479 10.766-9.191.465.288.846 4.215.846 8.727v8.204l14.263 14.237c9.959 9.942 14.946 14.237 16.531 14.237 5.433 0 3.559-3.058-10.66-17.399L211 219.345v-13.613c0-7.488.38-13.849.844-14.136.465-.287 2.291-3.576 4.059-7.309 1.767-3.733 3.556-7.462 3.975-8.287 1.323-2.605 4.859-15.207 6.454-23 2.809-13.726 2.917-34.987.21-41.25-.97-2.245 1.048-2.298 6.373-.167 3.674 1.47 4.437 2.539 10.742 15.046 6.619 13.131 6.862 13.457 9.815 13.168 2.609-.256 3.071-.745 3.341-3.54.246-2.556-.008-3.12-1.2-2.662-1.038.398-1.966-.467-2.958-2.757-5.764-13.308-10.881-22.123-13.663-23.537-4.203-2.136-11.832-5.301-12.776-5.301-1.006 0-5.857-5.201-8.395-9-2.503-3.747-5.777-7.227-11.216-11.921-4.625-3.992-8.605-9.917-8.605-12.81 0-.72 1.232-3.212 2.738-5.539 1.506-2.326 3.306-5.355 3.999-6.73.694-1.375 2.157-3.85 3.252-5.5 1.094-1.65 2.477-3.926 3.074-5.058.596-1.133 2.288-2.574 3.76-3.204 1.472-.63 7.177-3.632 12.677-6.671 5.5-3.038 11.012-5.973 12.25-6.521 1.476-.654 2.25-1.865 2.25-3.521 0-3.338-3.16-3.368-9.093-.089-4.143 2.291-13.7 7.352-19.721 10.443-4.537 2.33-7.032 5.178-11.88 13.56-2.564 4.434-4.773 8.215-4.909 8.402-.794 1.099-4.755-1.442-5.747-3.686-1.905-4.309-6.213-10.463-9.287-13.265-4.518-4.12-10.642-7.889-12.845-7.905-1.11-.009-2.693-.465-3.518-1.015-1.25-.833-.916-1.496 2-3.973 6.266-5.323 10-9.152 10-10.257 0-.595.674-1.827 1.497-2.737.824-.91 1.788-4.433 2.143-7.829.597-5.714.497-6.174-1.346-6.174-1.401 0-2.506 1.257-3.734 4.25-7.075 17.241-13.135 20.815-22.026 12.989-2.35-2.069-5.344-4.265-6.653-4.88-8.77-4.123-10.597-4.507-19.461-4.09-10.959.515-16.579 2.528-23.175 8.298-5.952 5.207-8.601 5.528-12.938 1.567C87.594 15.742 83 7.115 83 3.533 83 1.385 82.544 1 80 1c-2.74 0-3 .292-3 3.373m42.122 13.964c-6.405 2.265-17.657 10.989-16.528 12.815.713 1.154 51.138 1.09 51.853-.067.311-.502-1.909-3.119-4.933-5.815-3.956-3.526-7.393-5.517-12.256-7.1-8.292-2.698-10.08-2.682-18.136.167M99.5 38.546c-2.2.769-5.708 1.661-7.797 1.981-2.922.447-5.235 2.009-10.042 6.777-6.058 6.009-7 7.583-16.401 27.391C63.592 78.211 64.111 81 66.433 81c1.843 0 3.918 3.644 3.175 5.578-.719 1.875-5.03 1.824-6.608-.078-2.389-2.878-6.475-1.8-10.623 2.804-9.423 10.46-11.837 14.508-14.778 24.784-1.844 6.444-2.19 25.435-.563 30.919.57 1.921 1.433 6.193 1.918 9.493.892 6.082 2.984 13.139 5.779 19.5 2.794 6.357 5.759 12.492 6.284 13 .284.275 2.635 3.65 5.224 7.5 6.089 9.055 21.218 23.791 30.759 29.959 4.125 2.666 8.719 5.679 10.21 6.695 1.49 1.015 3.376 1.846 4.19 1.846.815 0 1.724.391 2.02.87.295.478 3.134 2.104 6.309 3.611 3.174 1.508 6.446 3.145 7.271 3.637 1.848 1.102 2.471 1.338 7.57 2.865 3.392 1.015 4.848.954 8.738-.366 2.568-.872 5.461-1.996 6.43-2.499.969-.502 5.587-2.818 10.262-5.145 17.977-8.95 26.83-15.192 38.574-27.197 8.179-8.361 16.805-19.897 19.434-25.989.543-1.258 1.372-2.962 1.843-3.787 8.538-14.962 14.25-52.643 9.649-63.654-.825-1.975-1.5-4.459-1.5-5.52 0-3.774-4.479-10.645-13.377-20.522-4.206-4.669-7.612-5.529-10.729-2.708-1.133 1.025-5.098 1.943-11.079 2.565-18.951 1.972-17.104 1.253-22.767 8.868-5.845 7.86-15.628 14.971-20.599 14.971-6.355 0-6.402.177-6.689 25l-.26 22.5h-8l-.27-22.421c-.174-14.485-.66-22.892-1.372-23.75-.607-.731-2.779-1.329-4.827-1.329-2.29 0-4.614-.771-6.031-2-1.268-1.1-2.844-2-3.501-2C106.707 109 93 93.895 93 91.92c0-.37-2.498-.879-5.551-1.133-5.906-.489-9.133-2.561-8.117-5.209.54-1.408 6.13-1.582 51.887-1.62 46.421-.037 51.755-.209 56.281-1.809 4.023-1.423 5.059-2.262 5.301-4.294.165-1.39-.398-3.105-1.25-3.813-.853-.708-1.551-2.33-1.551-3.605 0-1.276-.391-2.561-.87-2.857-.478-.295-2.166-3.134-3.749-6.309-6.529-13.084-13.342-19.825-21.159-20.934-2.047-.29-5.14-1.16-6.873-1.932-4.497-2.005-52.045-1.888-57.849.141m1.5 54.15c0 1.579 5.375 8.304 6.636 8.304.75 0 1.364.386 1.364.858s2.292 2.047 5.092 3.5c4.438 2.302 6.29 2.642 14.408 2.642 8.179 0 9.953-.331 14.543-2.712C148.82 102.291 156 95.737 156 93.461c0-1.246-4.045-1.461-27.5-1.461-15.125 0-27.5.313-27.5.696m-34.996 24.571c-6.992 4.466-10.629 9.802-11.462 16.817-.698 5.876.457 13.857 2.322 16.046 7.717 9.059 11.14 10.87 20.543 10.87 6.571 0 7.729-.31 11.693-3.135 5.199-3.705 8.814-7.752 8.864-9.924.02-.857.697-2.432 1.504-3.5 1.907-2.521 1.946-10.511.064-13-.808-1.067-1.499-2.616-1.536-3.441-.097-2.136-3.778-6.218-8.896-9.865-4.011-2.858-5.072-3.134-12-3.118-6.135.013-8.274.447-11.096 2.25m102.969.615c-9.65 6.063-13.225 15.532-10.482 27.767.871 3.885 6.974 10.781 11.858 13.398 4.77 2.556 10.935 2.676 10.464.203-.183-.963-1.353-1.895-2.6-2.073-3.571-.509-9.658-4.36-12.805-8.103-2.626-3.121-2.882-4.105-2.882-11.074 0-6.941.264-7.965 2.85-11.074 6.248-7.509 15.391-9.847 22.504-5.753 3.947 2.272 7.12 1.995 7.12-.623 0-.831-1.107-1.79-2.459-2.129-1.352-.34-2.983-1.248-3.622-2.019-.802-.966-3.378-1.396-8.291-1.383-6.086.016-7.79.435-11.655 2.863m-99.765 3.343c-2.361 1.209-5.511 3.79-7 5.736-2.389 3.122-2.708 4.424-2.708 11.039 0 6.41.357 7.976 2.458 10.777 5.761 7.68 15.781 10.329 22.924 6.061 6.045-3.612 7.935-5.848 9.708-11.485 1.559-4.957 1.57-5.797.137-10.236-1.831-5.669-4.702-9.039-10.212-11.986-5.075-2.714-9.88-2.684-15.307.094M.232 137c0 1.925.206 2.713.457 1.75.252-.963.252-2.537 0-3.5-.251-.963-.457-.175-.457 1.75m198.323 1.25c-.21.688-.642 2.75-.96 4.584-.318 1.834-1.482 4.603-2.587 6.155-2.458 3.452-2.518 4.601-.284 5.458 1.097.422 2.175.006 2.966-1.143.683-.992 1.775-2.421 2.427-3.174 1.398-1.615 3.125-10.056 2.429-11.87-.624-1.628-3.494-1.635-3.991-.01m-109.17 40.991c-4.267 3.316-6.079 5.809-7.386 10.164-4.207 14.016 12.894 26.25 24.718 17.685 3.969-2.875 8.283-9.953 8.283-13.59 0-3.637-4.314-10.715-8.283-13.59-5.246-3.8-12.92-4.097-17.332-.669m60.718.799c-2.308 1.672-4.449 3.81-4.757 4.75-.308.941-1.227 3.212-2.042 5.049-1.35 3.042-1.312 3.731.428 7.752 1.83 4.226 4.109 7.227 7.869 10.358.957.796 4.25 1.627 7.319 1.845 5.773.411 5.744.424 12.58-5.547 1.745-1.524 3.546-5.117 5.138-10.251.257-.828-.486-3.659-1.65-6.291-4.634-10.476-16.12-14.014-24.885-7.665m-59.88 4.904c-2.884 2.634-3.223 3.522-3.223 8.449 0 4.92.346 5.83 3.25 8.552 8.132 7.622 20.441-.12 18.303-11.512-1.564-8.34-11.84-11.417-18.33-5.489m61.989-.448C144.755 191.941 149.396 205 159.5 205c10.048 0 14.825-12.694 7.609-20.222-3.501-3.653-11.372-3.802-14.897-.282" fill="#1976D2" fill-rule="evenodd"/><path fill-opacity=".66" d="M78.53 3.863C77.285 9.53 85.937 25 90.352 25 92.429 25 94 27.239 94 30.2c0 1.938-.509 2.8-1.654 2.8-6.585 0-19.808 11.053-24.245 20.267-3.535 7.341-7.18 8.666-9.577 3.483-4.842-10.471-9.942-17.289-14.882-19.895C32.394 30.921 18.148 24 17.179 24c-.648 0-1.168.788-1.155 1.75.016 1.124 2.072 2.756 5.75 4.564 15.398 7.568 23.31 12.381 25.696 15.63 1.392 1.895 2.53 3.825 2.53 4.291 0 .465.845 2.065 1.878 3.555C63.087 69.961 63.087 69.96 48 85.072c-4.675 4.682-9.694 10.306-11.154 12.497-2.022 3.034-4.047 4.527-8.5 6.267-12.265 4.792-11.815 4.345-18.947 18.831C5.581 130.423 2.243 136 1.418 136c-.78 0-1.418.675-1.418 1.5 0 .991.991 1.5 2.922 1.5 2.742 0 3.301-.765 9.074-12.412 6.522-13.16 7.403-14.293 13.155-16.92 6.751-3.084 7.796-1.734 5.302 6.844-2.721 9.361-.752 32.288 4.164 48.488 3.213 10.587 7.599 20.933 10.285 24.257 1.094 1.353 1.405 5.241 1.354 16.941l-.065 15.185-13.596 13.439C25.118 242.213 19 248.652 19 249.13c0 .479.867.87 1.927.87 1.143 0 7.655-5.711 16-14.033L51 221.935v-7.386c0-4.062.273-8.097.607-8.967.655-1.708 4.393-2.218 4.393-.6 0 1.592 15.05 16.345 20.75 20.339 15.151 10.618 16.689 11.56 27.25 16.711 13.923 6.79 16.637 7.968 18.36 7.968.902 0 2.54.9 3.64 2 2.463 2.463 2.537 2.463 5 0 1.1-1.1 2.738-2 3.64-2 1.512 0 8.826-3.033 12.36-5.125.825-.488 2.175-1.146 3-1.463 8.402-3.22 25.532-13.876 34.439-21.422 5.403-4.577 16.561-16.048 16.561-17.025 0-.531.848-.965 1.883-.965 2.366 0 3.086 2.594 3.103 11.186l.014 6.685 14.006 14.065c8.665 8.701 14.766 14.064 16 14.064 1.097 0 1.994-.332 1.994-.737 0-.405-6.118-6.867-13.595-14.359l-13.596-13.621-.065-15.135c-.056-12.763.194-15.423 1.595-16.97.914-1.01 1.66-2.25 1.658-2.757-.001-.506.98-2.946 2.18-5.421 4.31-8.888 7.374-18.047 8.363-25 .352-2.475 1.275-7.744 2.05-11.708 1.88-9.61 1.782-21.333-.237-28.53-2.13-7.592-1.153-8.846 4.864-6.241 6.267 2.713 7.194 3.762 11.756 13.305 2.28 4.771 4.571 9.349 5.089 10.174.519.825 1.392 2.542 1.941 3.816.758 1.759 1.658 2.241 3.739 2 1.651-.19 2.873-1.011 3.072-2.062.224-1.183-.136-1.568-1.117-1.191-1.055.404-3.248-3.067-8.081-12.794-6.434-12.946-9.552-16.769-13.674-16.769-.687 0-3.658-1.14-6.603-2.533-3.805-1.8-6.127-3.753-8.024-6.75-1.469-2.319-6.303-7.81-10.743-12.201C200.394 76.429 197 71.6 197 68.054c0-1.748 2.546-6.22 8.122-14.264C206.155 52.3 207 50.7 207 50.235c0-1.441 4.974-7.673 6.784-8.5.944-.432 4.866-2.541 8.716-4.688 3.85-2.147 9.577-5.173 12.726-6.725 3.675-1.811 5.734-3.449 5.75-4.572.036-2.631-1.725-2.188-11.522 2.903a7912.019 7912.019 0 01-13.989 7.25c-2.769 1.428-5.984 3.497-7.144 4.597-2.105 1.996-6.975 10.044-9.868 16.306-1.259 2.727-1.914 3.187-3.74 2.627-3-.919-4.713-2.397-4.713-4.066 0-1.983-6.636-11.365-10.353-14.638C176.06 37.571 167.154 33 164.587 33c-1.286 0-1.64-.693-1.403-2.75.225-1.96 1.28-3.231 3.673-4.426 4.99-2.492 8.035-5.733 10.729-11.42C179.897 9.525 180.913 1 179.184 1 178.33 1 174 10.726 174 12.644c0 .608-1.994 3.187-4.432 5.731C165.723 22.388 164.6 23 161.077 23c-3.116 0-4.701-.648-6.818-2.788-13.729-13.876-37.789-13.876-51.518 0-6.719 6.791-15.865.182-20.703-14.962C80.452.287 79.406-.127 78.53 3.863m36.026 13.86c-5.285 2.741-14.837 11.933-14.246 13.707.242.726 9.315 1.07 28.19 1.07s27.948-.344 28.19-1.07c.619-1.857-9.056-11.006-14.566-13.774-4.565-2.293-6.475-2.645-13.956-2.577-7.256.067-9.474.497-13.612 2.644M94 37.741C80.82 42.135 76.569 46.336 68.447 63c-7.273 14.922-7.557 16.09-4.697 19.318 1.717 1.937 1.67 1.964-2.485 1.425-3.623-.469-4.761-.13-7.883 2.351-4.28 3.401-11.188 12.069-13.521 16.966-5.063 10.626-5.084 10.743-5.013 28.447.051 12.62.467 18.133 1.611 21.375.847 2.403 1.541 5.482 1.541 6.843 0 1.36.609 3.891 1.354 5.624.745 1.733 2.585 6.295 4.09 10.138 1.504 3.843 4.044 8.928 5.645 11.3C50.69 189.16 52 191.344 52 191.642c0 .528 1.176 2.152 6.779 9.358 5.352 6.884 26.393 26 28.617 26 .277 0 2.481 1.334 4.897 2.965 2.417 1.631 5.477 3.435 6.801 4.008 1.323.574 4.656 2.36 7.406 3.969s5.732 2.955 6.628 2.992c.895.036 2.187.741 2.872 1.566.685.825 1.977 1.503 2.872 1.506.896.004 2.917.679 4.492 1.5 3.629 1.893 6.643 1.893 10.272 0 1.575-.821 3.596-1.496 4.492-1.5.895-.003 2.187-.681 2.872-1.506s1.847-1.5 2.582-1.5c1.607 0 15.202-7.138 21.218-11.14 2.365-1.573 4.527-2.86 4.804-2.86 1.011 0 14.046-10.856 19.396-16.153 8.072-7.994 12.394-13.242 16.488-20.024 4.466-7.397 6.512-11.249 6.512-12.258 0-.65.661-2.056 1.468-3.124.808-1.067 1.498-2.616 1.534-3.441.036-.825.935-3.3 1.998-5.5s1.947-5.181 1.966-6.624c.019-1.444.728-4.591 1.575-6.994 1.144-3.242 1.56-8.755 1.611-21.375.071-17.704.05-17.821-5.013-28.447-2.333-4.897-9.241-13.565-13.521-16.966-3.122-2.481-4.26-2.82-7.883-2.351-4.155.539-4.202.512-2.485-1.425 2.244-2.533 2.217-5.623-.09-10.182-1.012-2-3.814-7.574-6.226-12.387-2.413-4.812-5.972-10.515-7.91-12.673C175.131 42.743 166.972 38 163.41 38c-1.261 0-2.57-.45-2.91-1-.393-.636-11.795-.956-31.309-.88-24.367.096-31.618.43-35.191 1.621m79.5 48.177c-2.535.575-2.07.77 3 1.255 6.733.643 12.5.05 12.5-1.286 0-1.014-10.998-.992-15.5.031m-90.75.788c1.237.238 3.263.238 4.5 0 1.237-.239.225-.434-2.25-.434s-3.487.195-2.25.434m11.591 1.739c.362.945.659 2.132.659 2.637 0 .505.481.918 1.07.918 1.554 0 .687-4.259-.979-4.808-.99-.326-1.213.047-.75 1.253m66.409.127c-.412.419-.75 1.901-.75 3.295 0 1.82.305 2.228 1.085 1.448.596-.596.934-2.079.75-3.295-.184-1.215-.673-1.867-1.085-1.448M98 95.235c0 1.857 7.076 9.765 8.738 9.765.576 0 1.307.675 1.624 1.5.636 1.658 4.638 2.09 4.638.5 0-.55-.679-1-1.51-1-.83 0-2.28-.9-3.222-2-.942-1.1-2.287-2-2.99-2-.703 0-1.278-.422-1.278-.938s-1.35-2.417-3-4.223c-2.174-2.38-3-2.822-3-1.604m58.295 1.439c-.754 1.966-3.955 5.326-5.073 5.326-.428 0-1.484.787-2.347 1.75s-2.426 2.286-3.472 2.941c-1.752 1.097-1.685 1.196.847 1.25 1.804.039 2.75-.457 2.75-1.441 0-.825.582-1.5 1.294-1.5 1.534 0 8.706-7.341 8.706-8.911 0-1.705-1.991-1.275-2.705.585M115 110.206c0 1.13 4.75 2.104 6.668 1.368.923-.354 2.037-.067 2.487.642.448.706.821 11.035.83 22.952.008 11.918.288 22.38.622 23.25.334.87 1.636 1.582 2.893 1.582s2.559-.712 2.893-1.582c.334-.87.614-11.332.622-23.25.009-11.917.382-22.246.83-22.952.45-.709 1.564-.996 2.487-.642.92.353 2.796.36 4.17.015 5.511-1.383 1.832-2.09-11.002-2.114-7.425-.013-13.5.316-13.5.731m-43.924 6.726c-1.065.674-.686.986 1.5 1.235 4.957.565 11.854-.28 10.303-1.263-1.807-1.144-9.981-1.125-11.803.028m103.491-.04c-.639 1.034 5.764 1.959 9.123 1.316 1.258-.24 2.04-.835 1.739-1.322-.715-1.157-10.146-1.152-10.862.006m-86.97 2.952c-.346.56-.142 1.319.453 1.687 1.538.95 2.53-.351 1.246-1.635-.718-.718-1.277-.735-1.699-.052M64 121c0 .55.423 1 .941 1s1.219-.45 1.559-1c.34-.55-.084-1-.941-1S64 120.45 64 121m103 0c0 .55.675 1 1.5 1s1.5-.45 1.5-1-.675-1-1.5-1-1.5.45-1.5 1m23.5 0c.34.55 1.041 1 1.559 1s.941-.45.941-1-.702-1-1.559-1-1.281.45-.941 1m-129.917 2.866c-.431.697-.513 1.537-.183 1.867.895.895 1.871-.421 1.387-1.871-.338-1.016-.574-1.016-1.204.004m30.567.084c.22.66.726 1.166 1.125 1.125 1.196-.124.964-1.495-.325-1.925-.66-.22-1.02.14-.8.8m72.393-.019c-.683 1.105.894 2.299 1.818 1.375.95-.951.773-2.306-.302-2.306-.518 0-1.2.419-1.516.931M95 129c0 1.1.45 2 1 2s1-.9 1-2-.45-2-1-2-1 .9-1 2m65.531.293c-.428.986-.497 2.074-.155 2.417 1.016 1.015 1.835-.411 1.367-2.382-.414-1.747-.468-1.748-1.212-.035m-103.864.374c-1.025 1.025-.79 5.139.333 5.833.55.34 1.006.029 1.014-.691.007-.72.285-2.321.616-3.559.573-2.136-.525-3.021-1.963-1.583M.079 137.583c.048 1.165.285 1.402.604.605.289-.722.253-1.585-.079-1.917-.332-.332-.568.258-.525 1.312m56.655 3.017c-1.108 1.108-.88 5.192.333 5.941 1.707 1.055 2.107-.088 1.224-3.498-.453-1.748-1.154-2.847-1.557-2.443m141.994 3.333c-.297 1.136-.129 2.319.373 2.629 1.312.812 2.358-2.503 1.166-3.695-.665-.665-1.18-.309-1.539 1.066m-102.978.644c-.412.416-.75 1.671-.75 2.79 0 1.471.302 1.731 1.094.939.601-.601.939-1.857.75-2.789-.189-.933-.682-1.356-1.094-.94m64.25.864c0 .793.45 1.719 1 2.059.55.34 1-.309 1-1.441 0-1.132-.45-2.059-1-2.059s-1 .648-1 1.441m-99.771 5.747c.218.653.931 1.365 1.584 1.583.731.244.954-.214.581-1.187-.698-1.818-2.765-2.196-2.165-.396m135.354-.322c-.431.697-.513 1.537-.183 1.867.895.895 1.871-.421 1.387-1.871-.338-1.016-.574-1.016-1.204.004M91 152.622c0 1.329.271 1.398 1.5.378.825-.685 1.5-1.415 1.5-1.622 0-.208-.675-.378-1.5-.378s-1.5.73-1.5 1.622m73-.622c0 .55.45 1 1 1s1-.45 1-1-.45-1-1-1-1 .45-1 1m-100 2.893c0 1.109 3.076 2.364 3.864 1.576.318-.318-.084-.996-.893-1.508-1.87-1.183-2.971-1.208-2.971-.068m23.459.174c-.363.586-.419 1.306-.126 1.6.717.716 2.667-.546 2.667-1.726 0-1.278-1.726-1.193-2.541.126m80.057-.092c-.808 1.307 1.493 2.416 2.638 1.271.64-.64.448-1.185-.555-1.57-.844-.324-1.782-.189-2.083.299M72 159c0 .55 2.223 1 4.941 1s5.219-.45 5.559-1c.384-.621-1.49-1-4.941-1-3.057 0-5.559.45-5.559 1m103.5 0c.34.55 1.518 1 2.618 1 1.1 0 1.722-.45 1.382-1-.34-.55-1.518-1-2.618-1-1.1 0-1.722.45-1.382 1m-82.256 19.664c-2.6 1.048.054 2.336 4.815 2.336 4.837 0 6.503-1.187 3.359-2.393-1.84-.706-6.359-.675-8.174.057m62 0c-2.6 1.048.054 2.336 4.815 2.336 4.837 0 6.503-1.187 3.359-2.393-1.84-.706-6.359-.675-8.174.057M105 182.5c0 .825.626 1.5 1.392 1.5.765 0 1.674 1.125 2.019 2.5.644 2.566 2.589 3.498 2.589 1.24 0-1.193-4.56-6.74-5.54-6.74-.253 0-.46.675-.46 1.5m-18 .5c0 .55.675 1 1.5 1s1.5-.45 1.5-1-.675-1-1.5-1-1.5.45-1.5 1m62.5 0c-.34.55.084 1 .941 1s1.559-.45 1.559-1-.423-1-.941-1-1.219.45-1.559 1m17.5 0c0 .55.675 1 1.5 1s1.5-.45 1.5-1-.675-1-1.5-1-1.5.45-1.5 1m-82.25 2.571c-.412.419-.75 2.127-.75 3.796 0 2.169.307 2.726 1.078 1.955.593-.593.931-2.301.75-3.796-.18-1.495-.666-2.375-1.078-1.955m61.595.972c-.81 2.11.542 3.25 1.694 1.428 1.224-1.936 1.2-2.971-.07-2.971-.568 0-1.298.694-1.624 1.543m24.655.339c0 1.1.45 2.278 1 2.618.55.34 1-.282 1-1.382 0-1.1-.45-2.278-1-2.618-.55-.34-1 .282-1 1.382m-87 11.059c0 1.682.45 3.059 1 3.059s1-1.098 1-2.441c0-1.343-.45-2.719-1-3.059-.583-.361-1 .656-1 2.441m87 1.618c0 1.451.433 2.292 1 1.941.55-.34 1-1.491 1-2.559s-.45-1.941-1-1.941-1 1.152-1 2.559m-62.417.084c-.346.904-.424 1.849-.173 2.1.795.795 2.59-.801 2.59-2.302 0-1.962-1.639-1.824-2.417.202m37.571-.091c.191.98.951 1.984 1.692 2.23.86.287 1.22-.194 1-1.334-.191-.98-.951-1.984-1.692-2.23-.86-.287-1.22.194-1 1.334m-58.628 3.407c-.359.58.07 1.333.954 1.672 2.2.844 2.884-.084 1.133-1.537-.985-.818-1.639-.86-2.087-.135M105 204c0 .55.423 1 .941 1s1.219-.45 1.559-1c.34-.55-.084-1-.941-1s-1.559.45-1.559 1m44.5 0c.34.55 1.293 1 2.118 1s1.222-.45.882-1c-.34-.55-1.293-1-2.118-1s-1.222.45-.882 1m17.5 0c0 .55.675 1 1.5 1s1.5-.45 1.5-1-.675-1-1.5-1-1.5.45-1.5 1m-73.434 2.893c-.734 1.188 4.091 2.351 6.534 1.575 1.061-.336 1.671-1.03 1.356-1.54-.734-1.187-7.16-1.216-7.89-.035m61.952.078c-.794 1.285 3.779 2.387 6.424 1.547 1.148-.364 1.829-1.08 1.514-1.59-.761-1.23-7.173-1.196-7.938.043" fill="#1976D2" fill-rule="evenodd"/></svg>