<svg xmlns="http://www.w3.org/2000/svg" width="256" height="256"><path fill-opacity=".016" d="M0 128.004v128.004l128.25-.254 128.25-.254.254-127.75L257.008 0H0v128.004m.485.496c0 70.4.119 99.053.265 63.672.146-35.38.146-92.98 0-128C.604 29.153.485 58.1.485 128.5" fill="#1976D2" fill-rule="evenodd"/><path fill-opacity=".171" d="M0 31.48v8.481l21.775-.633 21.776-.634 7.224 15.178L58 69.05V172l83.25-.001h83.25l15.793-48.75c13.818-42.654 15.787-49.549 15.75-55.147L256 61.704l-91.407.521-91.408.52-8.842-17.622C52.411 21.345 55.404 23 24.352 23H0v8.48m132.25 51.27L79 83.018V152h130.591l11.204-34.403c6.163-18.922 11.205-34.672 11.205-35 0-.328-10.463-.489-23.25-.356s-47.212.362-76.5.509m-39.429 99.645c-9.113 2.454-15.951 9.936-17.986 19.678-2.331 11.167 4.26 23.141 15.372 27.921 11.938 5.135 26.342-.469 32.356-12.591 2.77-5.581 2.613-16.468-.318-22.046-2.944-5.604-9.6-11.088-15.633-12.88-5.877-1.745-7.578-1.755-13.791-.082m85 0c-9.113 2.454-15.951 9.936-17.986 19.678-2.331 11.167 4.26 23.141 15.372 27.921 11.97 5.149 26.35-.528 32.463-12.815 2.661-5.35 2.448-16.355-.425-21.822-2.944-5.604-9.6-11.088-15.633-12.88-5.877-1.745-7.578-1.755-13.791-.082M91.4 198.4c-2.774 2.774-3.4 4.164-3.4 7.55 0 5.606 2.179 9.432 6.553 11.508 4.702 2.231 9.811 1.332 13.524-2.381 3.713-3.713 4.612-8.822 2.381-13.524-2.076-4.374-5.902-6.553-11.508-6.553-3.386 0-4.776.626-7.55 3.4m85 0c-2.774 2.774-3.4 4.164-3.4 7.55 0 5.606 2.179 9.432 6.553 11.508 6.556 3.111 14.19-.118 16.447-6.958.63-1.908.859-4.488.51-5.734-1.949-6.951-5.569-9.766-12.56-9.766-3.386 0-4.776.626-7.55 3.4" fill="#1976D2" fill-rule="evenodd"/><path fill-opacity=".534" d="M6.25 23.74L0 24.095v14.867l22.196.269 22.196.269L51.695 55l7.302 15.5.001 50.756.002 50.756 82.604-.256 82.603-.256 15.897-48.848C253.315 82.055 256 72.807 256 67.905v-5.899l-91.75.598-91.75.598-7.495-16.313C57.047 29.568 53.523 24.755 47.99 23.648c-3.222-.644-29.806-.586-41.74.092m85.5 59.008L78 83.056V152h131.937l11.153-34.25c6.134-18.838 11.35-34.588 11.591-35 .406-.696-109.973-.698-140.931-.002m-1.135 100.724c-4.898 1.746-11.293 7.821-13.712 13.028-5.25 11.297-.035 26.359 11.076 31.99 6.802 3.446 11.722 4.03 18.172 2.155 22.936-6.668 24.645-37.894 2.577-47.114-4.506-1.883-12.918-1.91-18.113-.059m85-.052c-4.93 1.823-11.309 7.908-13.712 13.08-4.323 9.302-1.143 22.84 6.937 29.536 17.108 14.177 43.434-.665 40.463-22.812-.863-6.433-5.953-14.128-11.684-17.663-3.912-2.413-6.194-3.067-11.5-3.294-3.977-.17-8.17.29-10.504 1.153m-81.58 12.422c-7.339 3.936-8.827 13.002-3.172 19.331 2.226 2.491 3.752 3.18 7.938 3.582 4.982.479 5.336.343 9.19-3.511 3.299-3.299 4.008-4.693 4.005-7.876-.005-5.065-3.184-10.131-7.486-11.928-4.516-1.887-6.338-1.817-10.475.402m85.29-.383c-6.63 2.884-9.173 11.572-5.131 17.526 4.74 6.984 12.52 8.137 18.419 2.731 6.746-6.182 5.114-16.843-3.103-20.276-4.221-1.764-6.094-1.76-10.185.019" fill="#1976D2" fill-rule="evenodd"/><path fill-opacity=".556" d="M15.75 23.748L0 24.051v15.264l21.813-.675 21.814-.675 7.686 15.779L59 69.523V171h164.915l13.105-40.25c7.208-22.137 14.427-44.301 16.043-49.252C254.678 76.546 256 70.354 256 67.737V62.98l-91.735.031-91.735.03-8.112-16.77c-4.462-9.224-9.263-17.821-10.669-19.105-3.179-2.902-8.465-4.177-16.249-3.919-3.3.109-13.087.335-21.75.501M151.737 81.75l-73.763.263.263 35.243.263 35.244h131.708l11.384-35c6.261-19.25 11.389-35.338 11.396-35.75.007-.412-1.675-.64-3.738-.507-2.062.134-36.943.362-77.513.507M91.748 183.366c-5.595 2.087-10.368 6.132-13.476 11.418-3.639 6.192-3.894 16.477-.565 22.784 2.934 5.558 9.299 11.073 14.486 12.554 19.513 5.57 36.296-11.421 30.805-31.187-1.311-4.722-7.224-11.5-12.283-14.08-5.173-2.64-14.022-3.334-18.967-1.489m86.246-.491c-14.418 4.728-21.687 19.669-16 32.889 8.413 19.557 35.069 20.798 44.403 2.068 6.006-12.053 1.19-26.921-10.682-32.977-4.421-2.256-13.715-3.294-17.721-1.98M94.5 194.954c-6.193 2.561-9.311 11.527-6.09 17.509 6.167 11.452 23.592 7.477 23.77-5.423.128-9.269-9.153-15.613-17.68-12.086m85 0c-6.609 2.734-9.476 12.112-5.614 18.362 5.013 8.111 17.379 7.874 21.665-.415.797-1.541 1.449-4.677 1.449-6.969 0-3.507-.615-4.782-3.882-8.05-3.215-3.214-4.548-3.871-7.75-3.819-2.128.035-4.768.436-5.868.891" fill="#1976D2" fill-rule="evenodd"/></svg>